<?xml version="1.0" standalone="no"?>
<!DOCTYPE svg PUBLIC "-//W3C//DTD SVG 20010904//EN"
 "http://www.w3.org/TR/2001/REC-SVG-20010904/DTD/svg10.dtd">
<svg version="1.0" xmlns="http://www.w3.org/2000/svg"
 width="270.000000pt" height="270.000000pt" viewBox="0 0 270.000000 270.000000"
 preserveAspectRatio="xMidYMid meet">
<metadata>
Created by potrace 1.14, written by Peter Selinger 2001-2017
</metadata>
<g transform="translate(0.000000,270.000000) scale(0.100000,-0.100000)"
fill="#000000" stroke="none">
<path d="M1248 2590 c-57 -54 -114 -118 -128 -140 -23 -39 -60 -71 -60 -53 0
23 -203 88 -341 110 l-35 5 -27 -83 c-38 -123 -57 -212 -59 -281 -1 -36 -3
-38 -35 -39 -18 -1 -36 -2 -40 -3 -11 -3 -127 -18 -133 -18 -3 0 -11 -4 -18
-10 -6 -6 -12 -8 -12 -5 0 3 -15 0 -32 -8 -18 -7 -37 -14 -43 -15 -47 -11 -91
-34 -88 -47 1 -6 5 -23 8 -39 3 -16 8 -40 10 -54 8 -60 67 -232 87 -255 16
-18 7 -32 -45 -68 -88 -61 -237 -216 -237 -246 0 -18 201 -215 251 -246 l46
-28 -17 -36 c-48 -97 -77 -187 -94 -293 -3 -15 -7 -31 -10 -36 -10 -17 14 -34
92 -61 45 -16 82 -28 82 -26 0 2 15 -1 33 -6 39 -12 89 -20 142 -24 22 -2 43
-4 46 -4 3 -1 6 -7 6 -13 1 -46 17 -157 28 -194 7 -24 12 -44 10 -44 -1 0 9
-33 24 -72 15 -40 32 -72 37 -71 6 1 28 4 49 7 22 3 51 7 65 10 14 3 34 8 45
10 18 3 170 60 215 80 11 4 24 -8 45 -41 29 -48 201 -225 234 -243 14 -7 35 7
104 71 48 45 110 112 138 150 29 38 54 69 56 69 3 0 17 -6 31 -14 79 -42 189
-76 319 -100 36 -6 42 0 67 75 37 113 55 194 60 281 1 35 8 41 56 44 107 8
324 68 340 94 4 7 4 28 -1 49 -4 20 -10 47 -13 61 -3 14 -10 43 -16 65 -6 22
-12 47 -14 56 -2 8 -18 46 -35 84 -17 37 -31 69 -31 71 0 2 19 16 43 31 49 32
153 129 208 195 33 38 38 50 30 70 -13 33 -163 183 -227 225 -30 20 -54 37
-54 38 0 1 11 27 24 56 35 79 73 206 81 269 4 30 9 58 11 61 12 20 -209 83
-336 95 -30 3 -56 7 -59 9 -2 3 -5 22 -7 42 -4 47 -11 101 -19 131 -3 12 -7
32 -10 43 -2 12 -17 58 -31 101 l-27 80 -36 -6 c-79 -13 -98 -17 -151 -33 -30
-9 -60 -17 -67 -19 -7 -1 -38 -14 -69 -28 -71 -33 -80 -32 -98 2 -29 57 -231
262 -257 262 -4 0 -54 -45 -111 -100z m194 -77 c66 -69 122 -143 152 -202 l17
-32 27 17 c77 51 245 113 315 117 30 2 33 -1 50 -53 28 -82 43 -177 42 -257
l-1 -73 61 -1 c105 -1 160 -8 255 -36 30 -9 57 -15 59 -14 14 9 16 -30 5 -78
-18 -68 -22 -84 -24 -91 -1 -3 -2 -8 -2 -11 1 -3 -21 -50 -49 -104 -27 -54
-49 -100 -49 -101 0 -1 19 -12 43 -24 78 -40 257 -195 257 -223 0 -18 -191
-197 -211 -197 -7 0 -76 -44 -87 -55 -3 -2 9 -26 25 -52 44 -74 89 -193 108
-289 6 -29 4 -32 -27 -39 -18 -4 -37 -9 -43 -11 -79 -25 -136 -35 -215 -39
-52 -2 -97 -4 -100 -4 -3 -1 -6 -34 -6 -73 -1 -91 -11 -156 -35 -233 -26 -84
-29 -86 -69 -75 -19 5 -47 11 -61 14 -14 2 -55 16 -91 30 -35 14 -69 26 -75
26 -6 0 -13 4 -15 8 -1 4 -20 18 -42 30 -30 18 -41 20 -52 11 -8 -6 -14 -16
-14 -21 0 -32 -200 -268 -228 -268 -4 0 -35 26 -68 58 -63 60 -124 138 -164
210 -13 23 -26 38 -29 33 -28 -43 -326 -153 -359 -132 -8 5 -18 30 -39 111
-13 46 -29 173 -27 218 0 29 -2 52 -5 53 -3 0 -44 2 -91 4 -85 3 -138 13 -239
42 l-53 15 6 44 c9 68 56 200 93 261 35 59 41 83 20 83 -25 0 -138 83 -213
157 -62 61 -73 76 -65 91 12 23 142 146 178 169 16 10 31 21 34 26 3 5 8 8 10
7 2 -1 21 8 41 20 l38 22 -23 31 c-30 42 -87 169 -94 209 -2 17 -9 42 -14 55
-23 62 -8 84 71 98 16 3 42 10 57 16 15 6 78 14 139 16 l110 6 0 56 c0 86 11
158 36 246 21 72 25 80 48 80 54 1 218 -55 287 -98 21 -13 43 -26 49 -30 8 -4
30 22 60 70 52 84 180 223 205 223 8 0 45 -30 81 -67z"/>
<path d="M1318 2474 c-21 -19 -50 -52 -65 -72 -15 -20 -30 -39 -33 -42 -3 -3
-18 -29 -33 -58 -32 -58 -33 -51 30 -121 72 -79 126 -230 126 -356 0 -98 -26
-245 -44 -245 -17 0 -129 122 -129 140 0 6 -4 10 -9 10 -12 0 -67 126 -85 194
-16 62 -15 202 2 266 6 25 5 39 -3 45 -48 41 -199 106 -277 119 -24 4 -27 0
-37 -39 -20 -80 -25 -120 -26 -204 l0 -85 64 -23 c126 -45 222 -120 291 -225
37 -57 85 -165 94 -210 2 -13 6 -30 8 -38 3 -16 -18 -20 -43 -9 -9 5 -27 10
-40 13 -74 14 -208 94 -279 166 -60 61 -98 124 -127 210 l-22 65 -73 -1 c-82
-1 -116 -5 -201 -24 -65 -15 -63 -9 -38 -108 14 -55 84 -194 107 -213 9 -8 18
-13 18 -12 6 10 75 25 131 28 150 8 317 -55 438 -165 37 -34 67 -66 67 -70 0
-16 -155 -43 -246 -43 -150 0 -283 51 -381 145 l-41 40 -54 -28 c-29 -16 -55
-31 -58 -34 -3 -3 -22 -18 -43 -33 -21 -16 -56 -47 -78 -69 l-40 -41 38 -40
c48 -49 134 -114 191 -143 l43 -22 46 43 c25 24 62 51 82 62 20 10 38 21 41
24 3 3 23 12 45 19 22 7 47 15 55 18 39 13 62 15 160 16 100 0 198 -14 229
-34 12 -7 8 -15 -20 -43 -94 -93 -204 -157 -316 -183 -86 -20 -171 -20 -273 0
-34 7 -36 6 -66 -46 -37 -62 -79 -168 -88 -220 -7 -40 -12 -36 74 -59 61 -15
82 -18 169 -19 40 -1 77 2 81 7 4 4 13 26 20 48 35 111 126 237 208 287 20 12
39 25 42 28 9 11 114 59 145 66 17 4 36 11 43 17 6 5 12 6 12 3 0 -4 9 -2 19
3 14 8 20 7 24 -3 3 -8 3 -17 -1 -20 -3 -4 -7 -17 -9 -29 -8 -55 -81 -211
-107 -229 -6 -4 -7 -8 -2 -8 20 0 -128 -132 -177 -157 -29 -15 -54 -27 -57
-28 -3 0 -9 -3 -15 -7 -5 -3 -29 -11 -52 -17 l-41 -11 0 -79 c0 -77 16 -179
37 -233 9 -25 12 -26 43 -17 18 6 40 12 48 14 61 15 176 70 211 101 14 13 15
21 3 71 -12 52 -13 192 -1 238 14 56 54 146 85 193 44 67 131 164 142 157 18
-11 44 -162 42 -250 -2 -148 -56 -284 -152 -381 -35 -37 -32 -53 20 -131 17
-24 30 -46 30 -49 0 -3 27 -33 61 -66 l61 -62 52 55 c58 60 115 139 136 188
12 31 12 34 -23 69 -91 93 -154 260 -150 392 3 76 28 216 42 233 13 13 131
-121 170 -193 21 -40 62 -152 57 -157 -3 -3 0 -16 5 -30 17 -45 11 -180 -11
-238 -9 -24 -6 -28 43 -58 82 -52 236 -110 257 -97 21 13 41 110 47 221 l6
106 -79 27 c-86 31 -147 69 -203 126 -44 45 -81 88 -81 95 0 3 -10 22 -23 43
-24 39 -47 95 -71 175 -14 47 -14 47 7 44 12 -1 28 -6 35 -10 6 -5 12 -6 12
-3 0 8 109 -34 160 -62 63 -34 141 -99 178 -148 40 -51 90 -149 98 -192 3 -18
10 -35 15 -38 18 -11 164 -4 229 10 86 19 100 25 100 46 0 58 -107 291 -133
289 -7 0 -46 -6 -87 -13 -85 -13 -182 -6 -250 19 -25 9 -50 17 -56 18 -30 7
-147 84 -200 133 -67 62 -66 64 30 85 59 14 235 17 286 6 14 -3 35 -8 48 -11
43 -9 147 -68 199 -112 28 -24 56 -44 62 -44 13 0 120 63 147 87 58 50 102 92
108 101 5 9 -86 112 -100 112 -2 0 -14 9 -25 19 -12 11 -47 33 -80 50 l-58 32
-21 -21 c-136 -136 -332 -192 -535 -152 -38 7 -76 14 -83 16 -43 8 -15 48 96
137 36 30 176 91 233 103 60 12 178 14 224 3 11 -3 31 -8 45 -11 22 -6 29 -1
53 39 35 60 54 103 82 192 l23 71 -27 10 c-79 30 -267 50 -301 32 -10 -5 -20
-23 -23 -39 -25 -125 -160 -283 -299 -349 -46 -22 -102 -45 -126 -52 -24 -6
-50 -14 -58 -17 -19 -7 -18 20 2 83 44 139 134 267 236 338 51 35 172 88 181
80 13 -14 27 32 27 92 1 68 -2 91 -21 169 -5 22 -12 48 -14 59 -2 10 -6 20 -8
22 -15 15 -249 -77 -289 -113 -19 -17 -19 -13 1 -153 6 -39 2 -90 -13 -176 -6
-30 -47 -125 -68 -156 -10 -14 -18 -29 -18 -32 0 -16 -123 -146 -138 -146 -5
0 -13 15 -16 33 -3 17 -8 43 -11 56 -22 112 -21 203 2 300 7 30 44 124 52 131
4 3 12 17 20 32 8 15 31 45 52 68 22 23 39 48 39 55 0 33 -171 255 -196 255
-5 0 -26 -16 -46 -36z m120 -156 c18 -26 32 -50 32 -53 0 -4 -13 -24 -30 -45
-16 -21 -41 -57 -54 -81 l-25 -43 -18 33 c-10 18 -35 55 -55 83 -29 39 -35 55
-28 68 14 26 81 114 93 121 12 9 43 -21 85 -83z m467 -105 c12 -78 12 -133 0
-133 -6 0 -43 -16 -83 -35 -39 -20 -75 -36 -78 -35 -4 0 -8 30 -10 67 -2 38
-5 80 -7 95 -4 24 2 29 62 56 77 35 94 41 102 36 4 -2 10 -25 14 -51z m-1018
35 c15 -6 30 -12 33 -13 3 -1 22 -10 43 -20 37 -18 38 -21 31 -55 -4 -19 -7
-63 -8 -97 -1 -35 -1 -63 -2 -63 0 0 -34 17 -75 38 -41 21 -80 41 -88 43 -15
5 -17 37 -6 118 8 66 17 72 72 49z m-257 -360 c0 -7 16 -44 35 -82 19 -39 35
-73 35 -77 0 -4 -17 -7 -37 -6 -21 0 -64 -2 -95 -7 l-57 -7 -29 58 c-16 32
-32 70 -36 85 -6 25 -3 27 36 35 73 15 148 15 148 1z m1600 3 c51 -3 55 -14
30 -78 -35 -87 -57 -115 -81 -103 -10 6 -52 11 -92 12 l-72 2 44 88 43 88 52
-4 c28 -2 62 -5 76 -5z m-860 -430 c0 -30 17 -34 41 -9 l22 23 -7 -34 c-6 -33
-5 -33 24 -28 23 5 28 3 23 -8 -3 -8 -9 -15 -14 -15 -22 0 -6 -29 19 -35 l27
-7 -25 -10 c-35 -13 -35 -15 -14 -39 19 -21 19 -21 -14 -16 -32 5 -33 5 -27
-24 7 -30 -8 -41 -19 -14 -8 23 -25 18 -32 -10 -3 -14 -10 -25 -16 -25 -5 0
-7 4 -4 9 3 4 -1 16 -8 26 -12 17 -14 16 -35 -6 l-23 -24 7 36 c7 36 7 36 -26
31 l-32 -5 22 24 22 24 -26 8 c-29 10 -34 27 -7 27 30 0 33 12 10 31 -11 11
-17 19 -12 20 5 1 18 2 29 3 16 1 20 7 18 30 l-2 29 23 -22 c23 -21 37 -27 35
-13 -1 4 -1 15 0 25 1 24 21 22 21 -2z m-889 -31 c19 -16 53 -40 77 -52 23
-13 42 -26 42 -29 0 -3 -28 -23 -61 -44 -34 -21 -69 -46 -77 -56 -15 -17 -18
-16 -61 13 -52 35 -101 78 -101 89 0 7 88 75 125 96 11 6 21 11 21 12 1 1 17
-12 35 -29z m1872 -20 c6 -5 25 -20 40 -32 36 -30 30 -43 -42 -95 -57 -41 -86
-52 -93 -35 -3 8 -78 61 -124 88 -16 9 -9 16 53 56 39 25 74 51 78 57 6 11 50
-8 88 -39z m-1717 -438 c33 1 60 -2 61 -5 1 -4 -16 -45 -38 -92 l-40 -85 -44
5 c-24 2 -65 7 -90 11 -49 7 -48 4 -31 59 9 30 40 92 53 107 11 12 22 14 43 8
15 -4 54 -8 86 -8z m1607 -49 c14 -32 29 -70 32 -84 7 -28 6 -29 -120 -45 -35
-4 -65 3 -65 17 0 14 -41 100 -62 131 l-19 27 62 3 c34 2 81 4 104 6 l42 3 26
-58z m-1258 -280 c-1 -27 2 -68 7 -93 7 -39 6 -47 -12 -60 -36 -27 -140 -64
-150 -54 -15 15 -28 163 -16 173 6 4 27 14 46 21 19 8 51 24 70 36 51 33 57
30 55 -23z m847 3 l86 -39 -3 -46 c-4 -54 -14 -111 -21 -123 -7 -11 -39 -4
-96 21 -67 30 -78 44 -68 85 4 18 6 59 5 90 -1 31 1 55 5 54 3 -2 45 -21 92
-42z m-455 -73 c8 -23 58 -96 79 -118 9 -9 13 -23 9 -33 -3 -9 -7 -19 -8 -22
-2 -7 -27 -38 -64 -79 l-33 -36 -31 35 c-17 19 -42 52 -55 72 l-24 38 44 60
c25 33 48 70 51 80 8 25 24 26 32 3z"/>
<path d="M1129 2167 c0 -7 -3 -21 -5 -32 -7 -30 -7 -125 -1 -169 11 -73 70
-198 118 -250 11 -11 19 -24 19 -30 0 -14 13 2 18 22 2 9 5 55 6 101 4 124
-25 217 -97 318 -31 43 -56 61 -58 40z"/>
<path d="M1551 2148 c-40 -43 -87 -139 -104 -214 -18 -81 -13 -244 8 -244 19
0 95 125 121 199 17 50 26 97 27 145 1 68 -6 133 -16 143 -3 2 -19 -11 -36
-29z"/>
<path d="M745 1951 c3 -6 8 -20 10 -32 8 -39 74 -146 118 -188 24 -23 63 -55
87 -71 50 -33 148 -75 156 -68 8 8 -26 88 -61 143 -70 111 -194 207 -289 222
-18 3 -26 1 -21 -6z"/>
<path d="M1915 1943 c-103 -42 -200 -128 -259 -233 -17 -30 -31 -57 -31 -60
-1 -3 -5 -15 -9 -28 -4 -13 -6 -26 -3 -28 8 -8 124 52 178 92 83 61 179 197
179 254 0 24 -3 24 -55 3z"/>
<path d="M553 1583 c-30 -6 -29 -14 5 -45 34 -33 106 -73 169 -94 74 -26 293
-28 293 -3 0 9 -80 66 -94 67 -5 0 -12 4 -15 9 -9 14 -77 43 -133 58 -48 12
-174 16 -225 8z"/>
<path d="M1943 1575 c-100 -28 -258 -123 -238 -143 3 -3 47 -7 98 -8 140 -5
245 26 344 100 70 51 57 62 -79 64 -40 1 -97 -5 -125 -13z"/>
<path d="M813 1268 c-15 -4 -43 -10 -61 -13 -59 -9 -222 -102 -222 -126 0 -16
54 -25 135 -23 69 1 106 8 158 28 67 25 197 103 197 118 0 17 -157 29 -207 16z"/>
<path d="M1817 1274 c-1 -2 -24 -4 -50 -5 -84 -5 -83 -17 6 -73 99 -64 179
-88 282 -88 50 0 99 2 110 5 11 3 24 6 29 6 16 2 -19 34 -77 72 -65 42 -167
76 -245 82 -29 2 -54 2 -55 1z"/>
<path d="M1019 1063 c-98 -48 -194 -144 -237 -234 -44 -93 -43 -102 10 -83 69
24 130 64 188 124 74 76 156 230 121 230 -4 0 -42 -17 -82 -37z"/>
<path d="M1610 1089 c0 -31 77 -162 124 -210 68 -71 87 -85 149 -113 99 -44
101 -43 70 36 -39 101 -138 205 -246 259 -70 36 -97 44 -97 28z"/>
<path d="M1255 996 c-30 -33 -80 -114 -101 -165 -34 -84 -44 -173 -31 -266 3
-22 6 -44 6 -49 2 -18 61 48 90 99 49 87 65 150 65 260 0 102 -10 143 -29 121z"/>
<path d="M1455 1002 c-12 -9 -15 -28 -19 -117 -3 -90 17 -173 60 -256 37 -70
93 -134 95 -108 1 8 3 25 5 39 17 114 1 216 -47 310 -41 81 -83 140 -94 132z"/>
</g>
</svg>
